<svg width="31" height="21" viewBox="0 0 31 21" fill="none" xmlns="http://www.w3.org/2000/svg">
<path d="M29.5821 3.54344C29.2441 2.29627 28.2481 1.31404 26.9835 0.980707C24.6913 0.375 15.5 0.375 15.5 0.375C15.5 0.375 6.30871 0.375 4.01649 0.980707C2.75189 1.31409 1.75591 2.29627 1.41787 3.54344C0.80368 5.804 0.80368 10.5205 0.80368 10.5205C0.80368 10.5205 0.80368 15.2369 1.41787 17.4975C1.75591 18.7447 2.75189 19.686 4.01649 20.0193C6.30871 20.625 15.5 20.625 15.5 20.625C15.5 20.625 24.6913 20.625 26.9835 20.0193C28.2481 19.686 29.2441 18.7447 29.5821 17.4975C30.1963 15.2369 30.1963 10.5205 30.1963 10.5205C30.1963 10.5205 30.1963 5.804 29.5821 3.54344V3.54344ZM12.4939 14.8027V6.23827L20.176 10.5206L12.4939 14.8027V14.8027Z" fill="#262626"/>
</svg>
